<svg width="87" height="57" viewBox="0 0 87 57" fill="none" xmlns="http://www.w3.org/2000/svg">
<path fill-rule="evenodd" clip-rule="evenodd" d="M0.527344 54.2557C0.527344 54.2557 1.60004 54.6448 2.80276 54.6448C4.10299 54.6448 4.88218 54.4507 5.33726 53.9947C5.69482 53.6381 5.85736 53.0195 5.82486 52.0778V45.9677H7.74269V52.3713C7.71018 55.1984 6.34589 56.4011 3.16032 56.4011C1.60003 56.4011 0.527344 56.141 0.527344 56.141V54.2557ZM13.3328 47.8205C16.3873 47.8205 18.1752 49.4458 18.1752 52.1753C18.1752 54.1257 16.9074 56.4011 13.3328 56.4011C9.75711 56.4011 8.45783 54.1257 8.45783 52.1753C8.45687 49.4458 10.2772 47.8205 13.3328 47.8205ZM16.2898 52.0788C16.2898 50.421 15.2181 49.4783 13.3328 49.4783C11.4465 49.4783 10.3432 50.4219 10.3432 52.0788C10.3432 54.3857 12.2276 54.7117 13.3328 54.7117C14.437 54.7117 16.2898 54.3848 16.2898 52.0788ZM25.8121 48.0155V51.2661H20.9047V48.0155H19.0203V56.206H20.9047V52.923H25.8121V56.206H27.73V48.0155H25.8121ZM54.3485 54.5157V52.923H58.7033V51.2652H54.3485V49.6724H59.971V48.0165H52.4306V56.207H59.971V54.5167L54.3485 54.5157ZM62.864 54.5157V52.923H67.2188V51.2652H62.864V49.6724H68.5191V48.0165H60.9787V56.207H68.5191V54.5167L62.864 54.5157ZM80.7394 54.5157V52.923H85.0942V51.2652H80.7394V49.6724H86.3944V48.0165H78.8531V56.207H86.3944V54.5167L80.7394 54.5157ZM45.9629 47.658C48.4333 47.658 49.8636 48.8922 49.8636 51.0376C49.8636 54.0607 47.4266 54.5157 45.9629 54.5157H43.2649V47.658H45.9629ZM45.9629 45.9677H41.3805V56.206H45.9629C50.2537 56.206 51.748 53.4756 51.748 51.1676C51.748 47.9171 49.5711 45.9667 45.9629 45.9667V45.9677ZM75.8635 53.0855C77.3263 52.7289 77.8454 51.6227 77.8454 50.6475C77.8454 48.9897 76.7737 48.0155 74.9218 48.0155H69.5593V56.2051H71.4436V53.2145H73.6866L75.962 56.2051H78.2699L75.8635 53.0855ZM71.4436 51.5262V49.6724H74.9218C75.5709 49.6724 75.962 50.0309 75.962 50.5825C75.962 51.3952 75.3118 51.5262 74.9218 51.5262H71.4436ZM35.693 56.206L30.7521 50.615V56.206H28.8677V48.0155H30.7521L35.693 53.5415V48.0155H37.5783V56.206H35.693ZM61.4577 4.3678C56.0617 1.87728 49.9544 0.572266 43.7869 0.572266C37.6194 0.572266 31.5714 1.87728 26.1162 4.3678C24.3379 8.99224 23.3885 13.8547 23.3885 18.7765C23.3885 23.6983 24.3379 28.62 26.1162 33.2454C31.5714 35.735 37.6796 37.0391 43.7869 37.0391C49.8952 37.0391 56.0024 35.736 61.4577 33.2454C60.2731 31.1106 58.4337 29.2128 58.3161 29.1535C58.079 29.0942 53.2758 27.6114 51.6151 26.7825C50.2508 26.0702 48.8875 24.4096 48.7096 24.2318C47.3871 24.104 46.0544 24.1239 44.7363 24.291C43.0173 24.5291 41.1788 24.8255 39.3996 24.5291C38.3919 24.4105 37.3832 24.0549 36.3163 23.7575C34.7751 23.2241 33.1145 22.6906 31.276 22.6906C31.5131 23.1648 33.1145 26.1295 35.3679 26.8418C35.3679 26.8418 36.0792 27.0196 36.3163 27.1974L37.2647 29.0359C37.2647 29.0359 32.2253 26.5454 28.904 22.4535L28.7855 21.6829C30.8018 20.9123 32.8774 20.7345 34.953 20.5567C34.953 20.5567 35.4272 20.4974 35.4864 20.4974C35.7838 18.0652 36.4348 15.9313 37.3842 13.9742C37.562 13.7371 37.2666 13.6779 37.2666 13.6779C36.4951 13.501 34.4787 13.0851 34.4787 13.0851L34.1833 12.2553C36.1987 11.4837 38.6892 10.8317 40.2897 10.477C40.5268 10.1204 40.6453 9.76473 40.6453 9.52763C40.651 9.41756 40.6328 9.30756 40.5918 9.20522C40.5509 9.10289 40.4882 9.01065 40.4082 8.93488C39.6376 7.98647 36.5534 8.28189 33.234 9.52763L33.1737 9.46835C33.7082 8.9932 34.6575 8.45972 35.4272 8.10406C35.1901 7.09543 33.886 6.68146 33.886 6.68146V6.56195C35.0122 6.6805 35.8431 7.1547 36.258 7.74746C37.1481 7.51131 37.563 7.39276 38.2743 7.33348C38.215 5.8516 36.7322 4.78273 36.7322 4.78273L36.7924 4.72441C38.1557 5.19861 39.1634 6.14702 39.5191 7.33444C40.0624 7.32136 40.604 7.40122 41.1205 7.57059C41.2983 7.15566 41.3566 6.68146 41.3566 6.26557C41.3566 4.84296 40.4092 3.77601 40.3489 3.71673L40.4684 3.6565C42.1884 4.54563 42.6033 6.02847 42.6033 7.39276C42.6033 8.6385 42.2467 9.76378 42.1281 10.0611C42.1281 10.0611 44.0852 9.70641 45.5671 9.52763C45.5078 9.64618 44.8558 10.5353 43.0775 11.4847L41.6539 11.3068C41.5354 11.6615 40.7055 14.2706 40.7055 16.2286C40.7055 16.8806 40.8834 17.4734 41.2983 17.8291C42.0096 18.482 43.1961 18.5404 43.9666 18.5404C49.6007 18.3033 52.031 19.0748 52.3876 19.2526C52.4469 19.1341 52.5052 18.8377 52.5052 18.4228C52.5052 17.592 52.2681 16.2879 50.964 14.6865L51.0233 14.6272C51.0826 14.6272 54.4039 16.4055 54.8179 19.1924L53.336 19.7861C54.641 21.1504 55.1143 22.8101 55.4699 24.1744C55.7672 25.1238 56.0034 25.9527 56.4785 26.3685C57.0713 26.902 59.4442 28.1468 59.5025 28.1468C59.5025 28.1468 60.2138 29.0359 61.9328 32.0026C63.429 27.7544 64.1911 23.2824 64.1862 18.7784C64.1862 13.8566 63.2378 8.99415 61.4596 4.36971L61.4577 4.3678Z" fill="#253858"/>
</svg>
