<svg width="93" height="32" viewBox="0 0 93 32" fill="none" xmlns="http://www.w3.org/2000/svg">
<path d="M92.7563 30.9176C92.2228 28.3133 91.6893 25.709 91.1578 23.1038L89.2925 13.9907L87.499 5.21983L86.7685 1.6461C86.7504 1.55623 86.7408 1.4807 86.606 1.48166C84.6031 1.48931 82.5992 1.48453 80.5962 1.496C79.9327 1.49982 79.2893 1.62507 78.6899 1.93292C77.8524 2.36505 77.3495 3.08783 76.9977 3.94541L65.9265 30.8966C65.9026 30.9549 65.8587 31.0113 65.872 31.0878C65.9026 31.0878 65.9332 31.0926 65.9629 31.0926C68.5041 31.0926 71.0453 31.0935 73.5845 31.0955C73.7069 31.0955 73.7452 31.0448 73.7824 30.9396C74.2662 29.5639 74.7576 28.191 75.2395 26.8152C75.2844 26.689 75.3418 26.6527 75.4708 26.6527C78.5723 26.6565 81.6737 26.6565 84.7771 26.6527C84.8975 26.6527 84.9501 26.6727 84.9778 26.8114C85.2474 28.1852 85.5276 29.5572 85.8039 30.9291C85.823 31.019 85.8278 31.0955 85.9626 31.0955C88.238 31.0897 90.5134 31.0878 92.7888 31.0888V30.9779C92.7752 30.9592 92.7649 30.939 92.7563 30.9176ZM83.5772 20.6037C81.5686 20.6008 79.5599 20.5999 77.5512 20.6018C77.5245 20.5993 77.498 20.5952 77.4719 20.5894C78.7903 16.899 80.1584 13.2373 81.449 9.49148C81.5255 9.85478 81.5944 10.1703 81.6584 10.4886C82.3315 13.8157 83.0055 17.1409 83.6805 20.467C83.7015 20.576 83.69 20.6037 83.5772 20.6037ZM66.2994 20.1066C66.0451 18.5233 65.2764 17.2202 64.1645 16.1122C63.0612 15.0127 61.762 14.2058 60.3919 13.506C59.3575 12.9782 58.3173 12.46 57.3526 11.8042C56.9798 11.5499 56.6289 11.2697 56.3392 10.9198C55.7082 10.1617 55.7082 9.24482 56.3392 8.48571C56.6002 8.17691 56.9205 7.92547 57.28 7.74669C58.0601 7.34419 58.9014 7.2046 59.7629 7.16062C61.9713 7.04972 64.0814 7.46082 66.0843 8.42453C66.2057 8.48189 66.33 8.53543 66.4581 8.59279C66.4744 8.51631 66.4877 8.46373 66.4944 8.40828C66.8138 6.40534 67.1283 4.40241 67.4553 2.40138C67.483 2.23407 67.4371 2.17958 67.2975 2.12795C65.6926 1.52201 64.0103 1.14513 62.3002 1.00841C62.131 0.994071 61.9541 1.01988 61.7935 0.945312H59.6194C59.6061 0.997896 59.5621 0.97973 59.5315 0.982598C58.8144 1.02466 58.1012 1.11167 57.3947 1.24073C55.5017 1.59447 53.7168 2.23216 52.1144 3.34119C50.4021 4.52574 49.1315 6.06881 48.4871 8.09947C48.0952 9.33469 47.9623 10.6005 48.1621 11.8883C48.3868 13.3492 49.0895 14.5634 50.0809 15.615C51.1086 16.7049 52.3324 17.5195 53.6259 18.2346C54.4309 18.6782 55.2684 19.0587 56.0639 19.5253C56.7513 19.9278 57.4243 20.3475 57.9588 20.9574C58.7112 21.815 58.7494 22.9661 58.0573 23.8581C57.8215 24.1554 57.5315 24.4052 57.2025 24.5943C56.4759 25.0274 55.6795 25.254 54.8487 25.3161C53.1536 25.4452 51.4739 25.3161 49.8275 24.8629C48.5722 24.5159 47.3877 23.9862 46.2184 23.4193C46.1515 23.3858 46.0884 23.3352 46.0014 23.3371L45.9182 23.8734C45.6027 25.8649 45.2872 27.8554 44.9698 29.8459C44.9555 29.9396 44.9746 29.9788 45.0568 30.0103C45.2815 30.0964 45.5014 30.1977 45.7289 30.278C48.0282 31.0935 50.4079 31.4415 52.8267 31.5276C54.1843 31.5744 55.5438 31.4779 56.8823 31.2408C58.5754 30.9425 60.195 30.4233 61.6855 29.5361C63.828 28.2588 65.3567 26.4672 66.0441 23.9987C66.4007 22.7233 66.5078 21.4211 66.2984 20.1075L66.2994 20.1066ZM34.1884 1.48739C31.6893 1.48739 29.1911 1.48548 26.692 1.48262C26.5275 1.48262 26.4577 1.52659 26.3975 1.69008C24.0045 8.2773 21.6067 14.8626 19.2041 21.446C19.1831 21.5034 19.1879 21.5827 19.1085 21.6133L18.8064 20.0741C18.6353 19.2126 18.4642 18.3512 18.2902 17.4918C18.294 17.4545 18.2978 17.4153 18.2634 17.3866C18.2577 17.3273 18.2548 17.2661 18.2443 17.2068L17.2786 12.1828C16.75 9.44942 16.2318 6.71128 15.6868 3.97983C15.4516 2.79719 14.7709 1.99697 13.6007 1.67478C13.1227 1.54667 12.6313 1.48357 12.1379 1.48739H0.425316C0.407515 1.48918 0.389579 1.48918 0.371777 1.48739C0.227413 1.4568 0.184391 1.54285 0.164313 1.66713C0.148061 1.77421 0.145192 1.88607 0.0849609 1.98168V2.09258C1.13662 2.35071 2.16438 2.69298 3.18449 3.06106C3.99905 3.35744 4.79927 3.69206 5.58132 4.06492C6.40353 4.44925 7.20661 4.87852 7.98484 5.3489C7.98867 5.36515 7.98484 5.39192 8.01257 5.38619C7.99345 5.44833 8.02213 5.50378 8.03647 5.56019L11.2039 17.7441C12.3416 22.1191 13.4793 26.4949 14.6141 30.8708C14.6543 31.0276 14.7155 31.0696 14.8675 31.0687C17.3838 31.0639 19.9011 31.0639 22.4174 31.0687C22.5542 31.0687 22.6278 31.04 22.6832 30.8966C26.5648 21.162 30.4473 11.4294 34.3328 1.69773C34.4159 1.4874 34.4159 1.48739 34.1865 1.48739H34.1884ZM44.7624 1.4807C43.8159 1.48644 42.8684 1.48357 41.921 1.48357H37.6111C37.5174 1.48357 37.4371 1.47497 37.4199 1.61168C37.3807 1.9224 37.3252 2.23121 37.2755 2.54097C36.8835 5.01046 36.4934 7.4809 36.1024 9.95039C35.771 12.0379 35.4386 14.1253 35.1052 16.2126C34.3363 21.1111 33.559 26.0083 32.7734 30.9042C32.7428 31.0955 32.8059 31.0955 32.9474 31.0945C34.1301 31.0897 35.3127 31.0916 36.4963 31.0916H40.0987C40.2115 31.0916 40.2651 31.0735 40.2852 30.9406C40.3999 30.1623 40.5251 29.386 40.6475 28.6088C42.0717 19.6277 43.4975 10.6468 44.9249 1.66618C44.9555 1.49026 44.9039 1.4807 44.7624 1.48166V1.4807Z" fill="#172B4D"/>
</svg>
