<svg width="364" height="272" viewBox="0 0 364 272" fill="none" xmlns="http://www.w3.org/2000/svg">
<path opacity="0.15" d="M351.53 186.369C351.53 132.489 322.753 102.662 267.118 102.662H266.158C277.669 72.836 315.079 57.442 364 54.555V-33C237.381 -26.265 167.357 44.934 167.357 152.694C167.357 238.325 207.645 272 262.321 272C316.998 272 351.53 239.287 351.53 186.369ZM148.173 186.369C148.173 132.489 119.396 102.662 63.76 102.662H62.801C74.311 72.836 111.722 57.442 160.643 54.555V-33C34.024 -26.265 -36 44.934 -36 152.694C-36 238.325 4.28801 272 58.964 272C113.64 272 148.173 239.287 148.173 186.369Z" fill="url(#paint0_linear_3_4717)"/>
<defs>
<linearGradient id="paint0_linear_3_4717" x1="290.667" y1="-33" x2="141.42" y2="307.405" gradientUnits="userSpaceOnUse">
<stop stop-color="#F99CDB"/>
<stop offset="1" stop-color="#6554C0"/>
</linearGradient>
</defs>
</svg>
